<?xml version="1.0" encoding="UTF-8" standalone="no"?>
<svg
   enable-background="new 0 0 304 304"
   viewBox="0 0 142.5 180.00592"
   version="1.1"
   id="svg1"
   sodipodi:docname="rackspace.svg"
   width="142.5"
   height="180.00592"
   inkscape:version="1.4.2 (ebf0e940, 2025-05-08)"
   xmlns:inkscape="http://www.inkscape.org/namespaces/inkscape"
   xmlns:sodipodi="http://sodipodi.sourceforge.net/DTD/sodipodi-0.dtd"
   xmlns="http://www.w3.org/2000/svg"
   xmlns:svg="http://www.w3.org/2000/svg">
  <defs
     id="defs1" />
  <sodipodi:namedview
     id="namedview1"
     pagecolor="#ffffff"
     bordercolor="#999999"
     borderopacity="1"
     inkscape:showpageshadow="2"
     inkscape:pageopacity="0"
     inkscape:pagecheckerboard="0"
     inkscape:deskcolor="#d1d1d1"
     inkscape:zoom="2.8388158"
     inkscape:cx="71.156431"
     inkscape:cy="89.121669"
     inkscape:current-layer="svg1" />
  <path
     d="m 60.8,173.00593 -0.2,1 h -2.3 l -1.1,5.9 h -1.1 l 1.1,-5.9 h -2.3 l 0.2,-1 z m 8.5,0 -1.3,7 h -1.1 l 0.9,-4.9 -2.8,3.3 h -0.7 l -1.6,-3.3 -0.9,4.9 h -1.1 l 1.3,-7 h 1 l 1.9,4 3.4,-4 z M 71.2,42.305926 78.5,4.0059262 h -45 L 0,180.00593 h 51.1 l 13.8,-72.6 C 73,64.605926 97.6,47.505926 132.5,52.805926 l 10,-52.49999977 C 111.1,-2.5940738 83,15.405926 71.2,42.305926 Z"
     fill="#eb0000"
     id="path1" />
</svg>
